<?xml version="1.0" encoding="UTF-8"?>
<svg width="191px" height="51px" viewBox="0 0 191 51" version="1.1" xmlns="http://www.w3.org/2000/svg" xmlns:xlink="http://www.w3.org/1999/xlink">
    <!-- Generator: sketchtool 52.6 (67491) - http://www.bohemiancoding.com/sketch -->
    <title>06E4A56F-F46B-41F0-A749-3313EA54DCD5</title>
    <desc>Created with sketchtool.</desc>
    <g id="Page-1" stroke="none" stroke-width="1" fill="none" fill-rule="evenodd">
        <g id="Desktop-HD" transform="translate(-209.000000, -46.000000)" fill="#008a88">
            <g id="Page-1" transform="translate(209.000000, 46.000000)">
                <g>
                    <path d="M20.4275079,30.2599227 C21.3234715,30.2599227 22.0735806,30.5392636 22.6801503,31.0967864 C23.2612533,31.6543091 23.5518048,32.3462864 23.5518048,33.1704 L23.5518048,42.1174227 L20.4275079,42.1174227 L20.4275079,39.9719455 C18.1262473,41.7662182 15.6328291,42.6633545 12.9449382,42.6633545 C11.8058836,42.6633545 10.6436776,42.5300591 9.45716242,42.2634682 C8.39219273,42.0212182 7.25313818,41.5599 6.04231394,40.8806727 C4.85579879,40.2269455 3.8382897,39.4132636 2.99094424,38.4442636 C2.14359879,37.4752636 1.4409503,36.2246045 0.884156364,34.6980818 C0.351671515,33.1947409 0.0854290909,31.4723318 0.0854290909,29.5320136 C0.0854290909,24.51315 1.10293818,20.8029 3.13564121,18.4024227 C5.17065939,16.0019455 8.20929576,14.8011273 12.2538655,14.8011273 C15.6687139,14.8011273 18.3936473,15.6379909 20.4275079,17.3105591 C22.4613685,18.9842864 23.4788776,21.3731727 23.4788776,24.4772182 C23.4788776,24.9373773 23.4418352,25.3986955 23.3700655,25.8588545 C23.2971382,26.3688545 23.2126352,26.73165 23.1153988,26.9507182 L23.0065867,27.3506045 L19.2653018,27.3506045 C19.4829261,26.1138545 19.5917382,25.1193545 19.5917382,24.3682636 C19.5917382,22.7188773 18.9747503,21.3244909 17.739617,20.1851045 C16.5276352,19.0700591 14.699823,18.5113773 12.2538655,18.5113773 C6.68361091,18.5113773 3.89964121,22.1370136 3.89964121,29.3871273 C3.89964121,31.0596955 4.16588364,32.5143545 4.69836848,33.7522636 C5.23085333,34.9878545 5.94507758,35.9823545 6.84219879,36.7346045 C7.71385333,37.4625136 8.65843515,38.0084455 9.67478667,38.3712409 C10.6922958,38.7351955 11.7699988,38.9171727 12.9078958,38.9171727 C15.3295442,38.9171727 17.6539564,37.9481727 19.8822897,36.0066955 L19.8822897,33.7151727 L13.6348533,33.7151727 L13.6348533,30.1880591 L20.4275079,30.2599227 Z" id="Fill-1"></path>
                    <path d="M37.9358412,27.6044455 L44.801423,27.6044455 C46.3282655,27.6044455 47.5992836,27.2775818 48.6167927,26.6226955 C49.6331442,25.9678091 50.14132,24.8771045 50.14132,23.3494227 C50.14132,20.3415818 48.0831503,18.8394 43.9656533,18.8394 L37.9728836,18.8394 L37.9358412,27.6044455 Z M43.8927261,15.3111273 C47.1142594,15.3111273 49.5845261,15.9289227 51.3035261,17.1656727 C53.0236836,18.4024227 53.8826048,20.4876273 53.8826048,23.4224455 C53.8826048,26.50215 52.441423,28.72065 49.560217,30.0779455 L54.5366352,38.5532182 L57.9514836,38.5532182 L57.9514836,42.0814909 L54.0284594,42.0814909 C53.3258109,42.0814909 52.7574412,41.8995136 52.3210352,41.5367182 C51.86032,41.1484227 51.4007624,40.5294682 50.9400473,39.6810136 L46.0365564,31.1327182 L37.9358412,31.1327182 L37.9358412,38.5903091 L41.1689503,38.5903091 L41.1689503,42.1174227 L31.4707806,42.1174227 L31.4707806,38.5903091 L34.3033685,38.5903091 L34.3033685,18.8753318 L31.0702594,18.8753318 L31.0702594,15.3470591 L43.8927261,15.3111273 Z" id="Fill-3"></path>
                    <path d="M63.0741036,42.1542818 L63.0741036,38.6260091 L65.9066915,38.6260091 L65.9066915,18.9110318 L62.67474,18.9110318 L62.67474,15.3839182 L83.1256309,15.3839182 C84.0215945,15.3839182 84.7728612,15.6632591 85.3782733,16.2207818 C85.9593764,16.7783045 86.2499279,17.4691227 86.2499279,18.2932364 L86.2499279,21.7125545 L82.6174552,21.7125545 L82.6174552,18.8751 L69.5391642,18.8751 L69.5391642,26.3326909 L80.1830733,26.3326909 L80.1830733,24.8397818 L83.8155461,24.8397818 L83.8155461,31.7514409 L80.1830733,31.7514409 L80.1830733,29.9328273 L69.5391642,29.9328273 L69.5391642,38.5900773 L82.6174552,38.5900773 L82.6174552,35.7526227 L86.2499279,35.7526227 L86.2499279,39.1719409 C86.2499279,40.0203955 85.9593764,40.7123727 85.3782733,41.2455545 C84.7728612,41.8019182 84.0331703,42.0824182 83.1626733,42.0824182 L63.0741036,42.1542818 Z" id="Fill-5"></path>
                    <path d="M109.788652,25.0950136 C110.006276,24.1491955 110.115088,23.4340364 110.115088,22.9483773 C110.115088,21.9550364 109.606913,20.9848773 108.589404,20.0390591 C107.573052,19.0932409 105.937398,18.6203318 103.685913,18.6203318 C101.602276,18.6203318 99.9562036,18.9970364 98.7453794,19.7481273 C97.5102461,20.5247182 96.8932582,21.5064682 96.8932582,22.6945364 C96.8932582,23.54415 97.2312703,24.2349682 97.9096097,24.76815 C98.6122582,25.3256727 99.4954885,25.7255591 100.561616,25.9678091 C101.11841,26.0895136 101.693725,26.2042636 102.287561,26.3143773 C102.88024,26.4233318 103.504173,26.5380818 104.158204,26.6597864 C104.812234,26.7814909 105.466264,26.9020364 106.120295,27.0225818 C106.773167,27.1454455 107.427198,27.2903318 108.081228,27.4595591 C109.389288,27.7991727 110.587379,28.1990591 111.677816,28.6592182 C112.742785,29.1216955 113.626016,29.8484455 114.328664,30.8417864 C115.007004,31.8119455 115.346173,33.0127636 115.346173,34.4419227 C115.346173,37.1113091 114.352973,39.1478318 112.367731,40.5538091 C110.381331,41.9609455 107.644822,42.6633545 104.158204,42.6633545 C102.26904,42.6633545 100.585925,42.4326955 99.1088582,41.9725364 C97.6074824,41.5123773 96.4082339,40.9421045 95.5122703,40.2628773 C94.6892339,39.6323318 93.9507006,38.9786045 93.2966703,38.2993773 C92.7155673,37.6920136 92.3034703,37.1229 92.061537,36.5885591 L91.733943,35.8977409 L94.7864703,33.7151727 C94.8593976,33.8855591 94.9797855,34.0791273 95.1499491,34.2970364 C95.2460279,34.4187409 95.3860945,34.5879682 95.5666764,34.8070364 C95.7484158,35.0249455 95.9845612,35.2926955 96.2751127,35.6068091 C96.8562158,36.2373545 97.4743612,36.7832864 98.1283915,37.2434455 C98.7824218,37.7291045 99.6540764,38.1649227 100.743355,38.5532182 C101.808325,38.9415136 102.934646,39.1350818 104.121161,39.1350818 C106.519658,39.1350818 108.359046,38.7479455 109.642798,37.9713545 C110.926549,37.1947636 111.569004,36.1040591 111.569004,34.6980818 C111.569004,33.8009455 111.228676,33.0857864 110.551495,32.5526045 C109.848846,31.9939227 108.965616,31.5940364 107.899488,31.3506273 C106.81021,31.1083773 105.610961,30.8916273 104.302901,30.6969 C103.650028,30.5995364 102.995998,30.4905818 102.341967,30.3688773 C101.687937,30.2483318 101.033907,30.1150364 100.379876,29.9689909 C99.0729733,29.6780591 97.8737248,29.2781727 96.7844461,28.7693318 C95.7183188,28.2593318 94.8350885,27.4954909 94.13244,26.47665 C93.4541006,25.4833091 93.1149309,24.2222182 93.1149309,22.6945364 C93.1149309,20.3670818 94.0467794,18.4881955 95.9116339,17.0567182 C97.7764885,15.6264 100.379876,14.9112409 103.721798,14.9112409 C105.247482,14.9112409 106.652779,15.0804682 107.935373,15.4200818 C109.170507,15.7596955 110.150973,16.1955136 110.877931,16.7286955 C111.629198,17.2885364 112.23461,17.9063318 112.694167,18.5844 C113.154882,19.2879682 113.481319,19.9428545 113.674634,20.5479 C113.869107,21.2039455 113.966343,21.8217409 113.966343,22.4036045 C113.966343,22.8162409 113.929301,23.2404682 113.857531,23.6762864 C113.807755,23.8953545 113.777658,24.0889227 113.766082,24.25815 C113.753349,24.4285364 113.735985,24.5745818 113.711676,24.6951273 L113.602864,25.0590818 L109.788652,25.0950136 Z" id="Fill-7"></path>
                    <path d="M161.487838,30.7693432 L158.254728,33.8977295 L158.254728,38.5178659 L161.487838,38.5178659 L161.487838,42.0461386 L151.78851,42.0461386 L151.78851,38.5178659 L154.622256,38.5178659 L154.586371,19.1656841 C150.880971,19.1656841 147.902528,19.7475477 145.649886,20.9124341 C143.397244,22.0761614 142.270922,23.6768659 142.270922,25.7145477 C142.270922,26.5618432 142.549898,27.2897523 143.106692,27.8959568 C143.639177,28.4778205 144.22028,28.7687523 144.850001,28.7687523 C145.359335,28.7687523 145.86751,28.6957295 146.375686,28.5508432 C146.836401,28.4291386 147.211456,28.2599114 147.502007,28.0408432 L147.865486,27.7870023 L148.91888,30.3682977 C147.610819,31.315275 146.182371,31.7881841 144.632377,31.7881841 C143.179619,31.7881841 141.822941,31.2909341 140.564656,30.2975932 C139.329522,29.3274341 138.711377,27.8113432 138.711377,25.7504795 C138.711377,24.1265932 139.074856,22.670775 139.801813,21.3841841 C140.551922,20.0755705 141.472195,19.0694795 142.561474,18.3659114 C143.724838,17.6148205 145.043316,17.0086159 146.521541,16.5472977 C148.047225,16.0871386 149.499983,15.760275 150.880971,15.5655477 C151.582462,15.4693432 152.28511,15.4009568 152.987759,15.365025 C153.68925,15.3290932 154.416207,15.3105477 155.167474,15.3105477 C156.06228,15.3105477 156.813547,15.5887295 157.418959,16.1474114 C158.000062,16.7049341 158.290613,17.3969114 158.290613,18.221025 L158.290613,29.3877068 L169.298001,18.8028886 L167.371795,18.8028886 L167.371795,15.2746159 L177.252862,15.2746159 L177.252862,18.8028886 L173.838013,18.8028886 L164.031032,28.331775 L170.604904,39.0255477 C172.081971,41.4747068 173.789395,43.4393659 175.727177,44.9183659 C177.64065,46.3973659 179.455728,47.1368659 181.175886,47.1368659 C181.829916,47.1368659 182.471213,47.0406614 183.100935,46.8459341 C183.683195,46.6767068 184.155486,46.4576386 184.517807,46.1922068 C184.929904,45.901275 185.244765,45.646275 185.462389,45.4272068 C185.704322,45.1861159 185.886062,44.9670477 186.007607,44.7723205 L186.153462,44.4813886 L190.438807,44.4813886 C190.390189,44.6761159 190.317262,44.8951841 190.221183,45.1374341 C190.099638,45.4272068 189.79751,45.901275 189.313644,46.5550023 C188.780001,47.2829114 188.223207,47.9007068 187.642104,48.4107068 C187.061001,48.9195477 186.200922,49.4040477 185.063025,49.8653659 C183.972589,50.3023432 182.774498,50.5202523 181.466438,50.5202523 C180.134068,50.5202523 178.851474,50.3023432 177.616341,49.8653659 C176.381207,49.4295477 175.279195,48.8708659 174.310304,48.1916386 C173.317104,47.4880705 172.349371,46.628025 171.404789,45.6091841 C170.460207,44.5915023 169.624438,43.5726614 168.89748,42.5538205 C168.194832,41.5848205 167.457456,40.4454341 166.68188,39.1356614 L161.487838,30.7693432 Z" id="Fill-9"></path>
                    <path d="M8.72001818,5.93269091 L7.4825697,7.13003182 L7.4825697,8.89996364 L8.72001818,8.89996364 L8.72001818,10.2503045 L5.00651515,10.2503045 L5.00651515,8.89996364 L6.09116364,8.89996364 L6.07727273,1.49105455 C4.65924242,1.49105455 3.5190303,1.71244091 2.65663636,2.15869091 C1.79424242,2.60378182 1.36362424,3.21694091 1.36362424,3.99700909 C1.36362424,4.32155455 1.46896364,4.60089545 1.68311515,4.83271364 C1.88684848,5.05525909 2.10910303,5.16653182 2.35103636,5.16653182 C2.54550909,5.16653182 2.73998182,5.13871364 2.93445455,5.08423636 C3.11040606,5.03787273 3.25394545,4.97180455 3.3662303,4.88835 L3.50513939,4.79098636 L3.90797576,5.77969091 C3.40790303,6.14132727 2.8603697,6.32330455 2.26769091,6.32330455 C1.71089697,6.32330455 1.19114545,6.13321364 0.709593939,5.75187273 C0.236145455,5.37980455 0,4.7991 0,4.01091818 C0,3.38964545 0.138909091,2.83212273 0.417884848,2.33950909 C0.704963636,1.83878182 1.05686667,1.45396364 1.47475152,1.18389545 C1.91926061,0.896440909 2.42512121,0.664622727 2.99001818,0.487281818 C3.57459394,0.3111 4.13138788,0.185918182 4.65924242,0.111736364 C4.9278,0.0746454545 5.19635758,0.0491454545 5.46491515,0.0340772727 C5.7346303,0.0201681818 6.01244848,0.0143727273 6.30068485,0.0143727273 C6.64332727,0.0143727273 6.93040606,0.121009091 7.16192121,0.334281818 C7.38533333,0.547554545 7.49646061,0.812986364 7.49646061,1.1271 L7.49646061,5.40414545 L11.7100364,1.35196364 L10.9726606,1.35196364 L10.9726606,0.000463636364 L14.7556182,0.000463636364 L14.7556182,1.35196364 L13.4487152,1.35196364 L9.69353939,4.99962273 L12.2112667,9.09469091 C12.7761636,10.0312364 13.4301939,10.7834864 14.1722,11.3502818 C14.9037879,11.9159182 15.5994909,12.1987364 16.2581515,12.1987364 C16.5093455,12.1987364 16.7535939,12.1628045 16.9955273,12.0886227 C17.2177818,12.0225545 17.3983636,11.9391 17.5372727,11.8371 C17.694703,11.7258273 17.8150909,11.6284636 17.8995939,11.5450091 C17.9922,11.4522818 18.0616545,11.3676682 18.1079576,11.2934864 L18.1635212,11.1822136 L19.8049636,11.1822136 C19.7864424,11.2575545 19.7586606,11.3410091 19.7216182,11.4325773 C19.6741576,11.5450091 19.5584,11.7258273 19.3731879,11.97735 C19.1694545,12.2543727 18.9564606,12.4919864 18.7330485,12.6867136 C18.5107939,12.8814409 18.1820424,13.0668955 17.7456364,13.2442364 C17.3289091,13.4111455 16.8705091,13.4934409 16.3692788,13.4934409 C15.8587879,13.4934409 15.3679758,13.4111455 14.8945273,13.2442364 C14.4222364,13.0761682 14.0008788,12.8628955 13.629297,12.6032591 C13.2496121,12.3331909 12.8780303,12.0040091 12.5168667,11.6133955 C12.155703,11.2239409 11.8350545,10.8344864 11.5572364,10.4450318 C11.2886788,10.0729636 11.0062303,9.63598636 10.7087333,9.13641818 L8.72001818,5.93269091 Z" id="Fill-11"></path>
                    <path d="M17.4447824,9.10767273 C18.010837,9.10767273 18.5132248,8.91758182 18.9496309,8.53624091 C19.3767764,8.16649091 19.729837,7.73299091 20.0088127,7.24153636 L18.1960491,7.24153636 C17.7955279,7.24153636 17.4899279,7.26008182 17.2757764,7.29717273 C17.0245824,7.34469545 16.8069582,7.44553636 16.6205885,7.60317273 C16.4249582,7.77124091 16.3277218,8.01233182 16.3277218,8.32760455 C16.3277218,8.54203636 16.4307461,8.72285455 16.6344794,8.87121818 C16.8393703,9.01958182 17.1183461,9.09376364 17.4725642,9.09376364 L17.4447824,9.10767273 Z M17.4401521,10.5287182 C16.6333218,10.5287182 16.002443,10.3328318 15.5486733,9.94337727 C15.0949036,9.55392273 14.8668612,9.03696818 14.8668612,8.39715 C14.8668612,6.94017273 15.9746612,6.21110455 18.1914188,6.21110455 L20.1801339,6.21110455 L20.1801339,6.01637727 C20.1801339,5.44030909 20.0227036,5.01376364 19.7066855,4.73558182 C19.3825642,4.45624091 18.8824915,4.31715 18.2053097,4.31715 C17.8244673,4.31715 17.5003461,4.40524091 17.2317885,4.58258182 C16.9539703,4.76803636 16.8150612,5.0184 16.8150612,5.33367273 C16.8150612,5.38003636 16.8185339,5.44494545 16.8289521,5.5284 C16.8370552,5.61185455 16.8509461,5.70921818 16.8694673,5.82049091 L15.4792188,5.82049091 C15.3866127,5.64546818 15.3403097,5.43567273 15.3403097,5.19458182 C15.3403097,4.66487727 15.4838491,4.23833182 15.7709279,3.91378636 C16.0684248,3.57069545 16.4203279,3.33771818 16.8289521,3.21717273 C17.2642006,3.08735455 17.7411218,3.02244545 18.2608733,3.02244545 C19.4659097,3.02244545 20.3144127,3.24962727 20.8052248,3.70399091 C21.3064552,4.16878636 21.5564915,4.92567273 21.5564915,5.97465 L21.5564915,8.92685455 L22.7812067,8.92685455 L22.7812067,10.2771955 L21.1582855,10.2771955 C20.8688915,10.2771955 20.6327461,10.1705591 20.4463764,9.95612727 C20.2600067,9.74401364 20.166243,9.46930909 20.166243,9.13549091 L20.166243,8.67649091 C19.5261036,9.88310455 18.6174067,10.4858318 17.4401521,10.4858318 L17.4401521,10.5287182 Z" id="Fill-13"></path>
                    <path d="M29.5677261,4.2891 C28.9380048,4.2891 28.3997321,4.49773636 27.9540655,4.91385 C27.5095564,5.32996364 27.1564958,5.7936 26.8971988,6.30244091 L26.8971988,8.15003182 C27.5558594,8.80607727 28.3487988,9.13641818 29.276017,9.13641818 C29.8594352,9.13641818 30.3560352,8.93241818 30.7635018,8.52441818 C31.1721261,8.11757727 31.3758594,7.56585 31.3758594,6.87271364 C31.3758594,6.06598636 31.2080109,5.43312273 30.8746291,4.96948636 C30.5412473,4.50585 30.1048412,4.27519091 29.5677261,4.27519091 L29.5677261,4.2891 Z M24.2683442,1.35196364 L24.2683442,0.000463636364 L25.8125503,0.000463636364 C26.1366715,0.000463636364 26.3971261,0.121009091 26.5915988,0.3621 C26.7860715,0.603190909 26.8833079,0.932372727 26.8833079,1.35196364 L26.8833079,4.51164545 C27.10672,4.14073636 27.4354715,3.79300909 27.87072,3.46730455 C28.3071261,3.14275909 28.8627624,2.98048636 29.5399442,2.98048636 C30.4949442,2.98048636 31.2739927,3.32821364 31.8770897,4.02366818 C32.4697685,4.71216818 32.7661079,5.64987273 32.7661079,6.83794091 C32.7661079,8.02600909 32.4419867,8.93125909 31.7925867,9.55369091 C31.1431867,10.1749636 30.3097321,10.4867591 29.2899079,10.4867591 C28.3719503,10.4867591 27.5604897,10.1819182 26.8555261,9.57223636 L26.6876776,10.9735773 L25.4919018,10.9735773 L25.4919018,1.37862273 L24.2683442,1.35196364 Z" id="Fill-15"></path>
                    <path d="M39.6088855,4.55395227 L39.6088855,3.20361136 L41.1519339,3.20361136 C41.4772127,3.20361136 41.7365097,3.32299773 41.93214,3.56408864 C42.1266127,3.80633864 42.2238491,4.13667955 42.2238491,4.55395227 L42.2238491,8.91329318 L43.4335158,8.91329318 L43.4335158,10.2636341 L41.7515582,10.2636341 C41.1392006,10.2636341 40.8336006,9.905475 40.8336006,9.191475 L40.8336006,8.11931591 C40.8150794,8.184225 40.7722491,8.286225 40.7085824,8.42531591 C40.6530188,8.55513409 40.5418915,8.74986136 40.3752006,9.01065682 C40.2177703,9.26102045 40.0383461,9.48820227 39.8346127,9.69220227 C39.64014,9.88808864 39.3762127,10.0689068 39.0439885,10.2358159 C38.7106067,10.402725 38.3552309,10.4861795 37.9755461,10.4861795 C36.477643,10.4861795 35.7286915,9.43256591 35.7286915,7.32533864 L35.7286915,4.56786136 L34.5051339,4.56786136 L34.5051339,3.21752045 L36.0481824,3.21752045 C36.3734612,3.21752045 36.6327582,3.33806591 36.8283885,3.57915682 C37.0228612,3.82024773 37.1200976,4.14942955 37.1200976,4.56786136 L37.1200976,7.29752045 C37.1200976,7.77970227 37.2127036,8.184225 37.3979158,8.50877045 C37.5738673,8.82520227 37.8655764,8.98167955 38.2742006,8.98167955 C38.6353642,8.98167955 38.9918976,8.82867955 39.3449582,8.52267955 C39.6876006,8.21552045 39.9665764,7.86779318 40.1795703,7.47833864 C40.3833036,7.08888409 40.5499945,6.73999773 40.679643,6.43399773 C40.8104491,6.118725 40.8752733,5.93211136 40.8752733,5.87763409 L40.8752733,4.55395227 L39.6088855,4.55395227 Z" id="Fill-17"></path>
                    <path d="M50.4848885,4.31738182 C50.1503491,4.31738182 49.8169673,4.3962 49.4835855,4.55499545 C49.1687248,4.70335909 48.8990097,4.90388182 48.6767552,5.15540455 C48.44524,5.42431364 48.2646582,5.65265455 48.1350097,5.83926818 C48.0597673,5.94126818 47.994943,6.04674545 47.9393794,6.15338182 C47.8838158,6.26117727 47.8328824,6.36549545 47.7865794,6.46749545 L47.7865794,8.17135909 C48.44524,8.8332 49.2381794,9.16354091 50.1653976,9.16354091 C50.7499733,9.16354091 51.2454158,8.95838182 51.6528824,8.54806364 C52.0615067,8.14006364 52.26524,7.58485909 52.26524,6.88708636 C52.26524,6.07804091 52.0985491,5.43938182 51.7640097,4.97342727 C51.4306279,4.50863182 50.9942218,4.27565455 50.4571067,4.27565455 L50.4848885,4.31738182 Z M45.1577248,4.58281364 L45.1577248,3.23131364 L46.7019309,3.23131364 C47.0260521,3.23131364 47.2853491,3.35185909 47.4809794,3.59295 C47.6754521,3.83404091 47.7726885,4.16322273 47.7726885,4.58281364 L47.7726885,4.67901818 C47.8375127,4.53181364 47.9347491,4.37765455 48.0643976,4.21885909 C48.1292218,4.14583636 48.2044642,4.0647 48.2878097,3.97545 C48.3711552,3.88851818 48.4637612,3.79347273 48.5656279,3.69031364 C48.7786218,3.48631364 49.0518097,3.32404091 49.3863491,3.20349545 C49.7289915,3.07367727 50.0855248,3.00760909 50.4571067,3.00760909 C51.4121067,3.00760909 52.1911552,3.35649545 52.7930945,4.05195 C53.3869309,4.73929091 53.6832703,5.67815455 53.6832703,6.86506364 C53.6832703,8.05429091 53.3591491,8.95954091 52.7097491,9.58081364 C52.0615067,10.2032455 51.2268945,10.5150409 50.2070703,10.5150409 C49.2891127,10.5150409 48.491543,10.2217909 47.8143612,9.63645 L47.8143612,12.4356545 L48.8990097,12.4356545 L48.8990097,13.7871545 L45.3521976,13.7871545 L45.3521976,12.4356545 L46.4241127,12.4356545 L46.4241127,4.59556364 L45.1577248,4.58281364 Z" id="Fill-19"></path>
                    <path d="M58.6393152,9.10767273 C59.2053697,9.10767273 59.7077576,8.91758182 60.1441636,8.53624091 C60.5713091,8.16649091 60.9243697,7.73299091 61.2033455,7.24153636 L59.3905818,7.24153636 C58.9900606,7.24153636 58.6844606,7.26008182 58.4703091,7.29717273 C58.2191152,7.34469545 58.0014909,7.44553636 57.8151212,7.60317273 C57.6194909,7.77124091 57.5222545,8.01233182 57.5222545,8.32760455 C57.5222545,8.54203636 57.6252788,8.72285455 57.8290121,8.87121818 C58.0350606,9.01958182 58.3140364,9.09376364 58.667097,9.09376364 L58.6393152,9.10767273 Z M58.6346848,10.5287182 C57.8278545,10.5287182 57.1969758,10.3328318 56.7432061,9.94337727 C56.2894364,9.55392273 56.0613939,9.03696818 56.0613939,8.39715 C56.0613939,6.94017273 57.1691939,6.21110455 59.3859515,6.21110455 L61.3746667,6.21110455 L61.3746667,6.01637727 C61.3746667,5.44030909 61.2172364,5.01376364 60.9023758,4.73558182 C60.577097,4.45624091 60.0770242,4.31715 59.3998424,4.31715 C59.019,4.31715 58.6948788,4.40524091 58.4263212,4.58258182 C58.148503,4.76803636 58.0095939,5.0184 58.0095939,5.33367273 C58.0095939,5.38003636 58.0130667,5.44494545 58.0234848,5.5284 C58.0327455,5.61185455 58.0454788,5.70921818 58.064,5.82049091 L56.6737515,5.82049091 C56.5811455,5.64546818 56.5348424,5.43567273 56.5348424,5.19458182 C56.5348424,4.66487727 56.6783818,4.23833182 56.9654606,3.91378636 C57.2629576,3.57069545 57.6148606,3.33771818 58.0234848,3.21717273 C58.4587333,3.08735455 58.9356545,3.02244545 59.4554061,3.02244545 C60.6604424,3.02244545 61.5089455,3.24962727 62.0009152,3.70399091 C62.5009879,4.16878636 62.7510242,4.92567273 62.7510242,5.97465 L62.7510242,8.92685455 L63.9757394,8.92685455 L63.9757394,10.2771955 L62.3528182,10.2771955 C62.0645818,10.2771955 61.8272788,10.1705591 61.6409091,9.95612727 C61.4545394,9.74401364 61.3607758,9.46930909 61.3607758,9.13549091 L61.3607758,8.67649091 C60.7206364,9.88310455 59.8119394,10.4858318 58.6346848,10.4858318 L58.6346848,10.5287182 Z" id="Fill-21"></path>
                    <path d="M65.8804145,3.23073409 L67.0495661,3.23073409 L67.0495661,1.97775682 L68.4398145,1.33677955 L68.4398145,3.23073409 L71.3048145,3.23073409 L71.3048145,4.58223409 L68.4398145,4.58223409 L68.4537055,7.78480227 C68.4537055,8.70396136 68.8704327,9.16296136 69.7050448,9.16296136 C69.9180388,9.16296136 70.1646024,9.12587045 70.4424206,9.05168864 C70.7017176,8.98677955 70.9100812,8.91723409 71.0686691,8.84305227 L71.2909236,8.73177955 L71.84656,9.72164318 C71.7909964,9.77612045 71.7076509,9.84566591 71.5965236,9.92912045 C71.4853964,10.012575 71.23536,10.1238477 70.8464145,10.2629386 C70.4563115,10.4020295 70.0256933,10.4727341 69.5522448,10.4727341 C68.7917176,10.4727341 68.1897782,10.2409159 67.7441115,9.77612045 C67.2996024,9.32175682 67.0773479,8.65759773 67.0773479,7.78480227 L67.0773479,4.55441591 L65.9081964,4.55441591 L65.8804145,3.23073409 Z" id="Fill-23"></path>
                    <path d="M77.3820873,4.37290227 C76.4085661,4.37290227 75.7499055,4.81915227 75.407263,5.70933409 L78.9957479,5.70933409 C78.9587055,5.31408409 78.790857,4.99301591 78.4945176,4.74497045 C78.1981782,4.496925 77.8277539,4.37290227 77.3820873,4.37290227 Z M80.4693418,9.03708409 C80.44156,9.08460682 80.3998873,9.14024318 80.3443236,9.20515227 C80.2980206,9.26078864 80.1730024,9.37669773 79.9692691,9.55403864 C79.7551176,9.73022045 79.5479115,9.87858409 79.3430206,9.99912955 C79.1300267,10.119675 78.8475782,10.2367432 78.4945176,10.3468568 C78.1426145,10.4581295 77.7907115,10.514925 77.4376509,10.514925 C76.9560994,10.514925 76.5058024,10.4581295 76.0890752,10.3468568 C75.6804509,10.2367432 75.2915055,10.0466523 74.9210812,9.77658409 C74.5494994,9.507675 74.2624206,9.14024318 74.0586873,8.67660682 C73.8445358,8.19326591 73.7391964,7.63574318 73.7391964,7.00519773 C73.7391964,5.78003864 74.054057,4.80872045 74.6837782,4.09472045 C75.314657,3.37956136 76.2187236,3.02256136 77.3959782,3.02256136 C78.2861539,3.02256136 79.0096388,3.28683409 79.5652752,3.81653864 C80.1220691,4.34508409 80.3998873,5.06951591 80.3998873,5.988675 L80.3998873,6.93565227 L75.2961358,6.93565227 L75.2961358,6.97737955 L75.2961358,7.01910682 L75.2961358,7.07474318 C75.2961358,7.71572045 75.5183903,8.21528864 75.964057,8.57924318 C76.4085661,8.93972045 76.919057,9.12169773 77.4932145,9.12169773 C77.8833176,9.12169773 78.272263,9.04287955 78.6612085,8.88524318 C79.0327903,8.73687955 79.3013479,8.58387955 79.4680388,8.42508409 L79.7192327,8.18862955 L80.4693418,9.03708409 Z" id="Fill-25"></path>
                    <path d="M83.0146194,8.91294545 L84.085377,8.91294545 L84.085377,4.53969545 L82.8757103,4.53969545 L82.8757103,3.18935455 L84.5576679,3.18935455 C85.1700255,3.18935455 85.4756255,3.54635455 85.4756255,4.26151364 L85.4802558,5.61185455 C85.498777,5.54810455 85.5196133,5.48667273 85.5427648,5.43103636 C85.5659164,5.3754 85.5867527,5.31860455 85.6052739,5.26412727 C85.6237952,5.20849091 85.6608376,5.12851364 85.7164012,5.02651364 C85.7719648,4.92567273 85.8414194,4.79469545 85.9247648,4.63821818 C86.1007164,4.32178636 86.2812982,4.06215 86.4665103,3.85815 C86.660983,3.65299091 86.9249103,3.45826364 87.2594497,3.27280909 C87.6020921,3.08735455 87.9586255,2.99462727 88.3290497,2.99462727 C89.8292679,2.99462727 90.5805345,4.05055909 90.5805345,6.16242273 L90.5805345,8.92685455 L91.8040921,8.92685455 L91.8040921,10.2632864 L90.251783,10.2632864 C89.9357648,10.2632864 89.678783,10.1520136 89.4831527,9.92946818 C89.2875224,9.70692273 89.1891285,9.41019545 89.1891285,9.03696818 L89.1891285,6.16937727 C89.1891285,5.67792273 89.1011527,5.2734 88.9252012,4.95812727 C88.7492497,4.64169545 88.4575406,4.48405909 88.0489164,4.48405909 C87.6877527,4.48405909 87.3346921,4.63821818 86.9920497,4.94537727 C86.6401467,5.25253636 86.3611709,5.60258182 86.1574376,5.99319545 C85.9444436,6.38380909 85.7777527,6.73269545 85.6573648,7.04101364 C85.536977,7.3389 85.4756255,7.52551364 85.4756255,7.59853636 L85.4756255,8.92685455 L86.5602739,8.92685455 L86.5602739,10.2632864 L83.0146194,10.2632864 L83.0146194,8.91294545 Z" id="Fill-27"></path>
                    <polygon id="Fill-29" points="128.845706 40.7223409 128.845706 12.5877273 127.9891 12.5877273 126.903294 16.5680455 126.588433 16.5761591 126.588433 17.4605455 126.988955 17.4605455 126.982009 18.3507273 125.988809 18.36 125.988809 19.3475455 126.667148 19.3382727 126.682197 20.1021136 125.731827 20.1021136 125.731827 20.6515227 125.046542 20.6515227 125.046542 21.7306364 125.617227 21.7491818 125.58713 23.0983636 123.875076 23.0867727 123.875076 24.3223636 124.5893 24.3559773 124.618239 24.9401591 125.360245 24.9401591 125.360245 25.5231818 124.189936 25.5231818 124.160997 26.5872273 122.646888 26.5872273 122.646888 27.3754091 123.189791 27.3754091 123.188633 27.8239773 123.531276 27.8251364 123.526645 28.4382955 124.103118 28.4382955 124.111221 28.9517727 124.529106 28.9459773 124.534894 29.4722045 124.903003 29.4594545 124.903003 30.1549091 125.178506 30.1502727 125.188924 31.5620455 124.075336 31.5956591 124.089227 32.385 124.853227 32.385 124.846282 33.6542045 123.046252 33.6194318 123.046252 34.5235227 123.846136 34.5409091 123.839191 37.4989091 122.646888 37.4792045 122.646888 33.4142727 121.333039 33.4490455 121.333039 37.4189318 119.332748 37.4189318 119.332748 40.7223409"></polygon>
                    <polygon id="Fill-31" points="129.845504 40.7223409 129.845504 12.5877273 130.70211 12.5877273 131.787916 16.5680455 132.102777 16.5761591 132.102777 17.4605455 131.702256 17.4605455 131.709201 18.3507273 132.702401 18.36 132.702401 19.3475455 132.024062 19.3382727 132.009013 20.1021136 132.959383 20.1021136 132.959383 20.6515227 133.644668 20.6515227 133.644668 21.7306364 133.073983 21.7491818 133.10408 23.0983636 134.816135 23.0867727 134.816135 24.3223636 134.10191 24.3559773 134.072971 24.9401591 133.330965 24.9401591 133.330965 25.5231818 134.501274 25.5231818 134.530213 26.5872273 136.044322 26.5872273 136.044322 27.3754091 135.501419 27.3754091 135.502577 27.8239773 135.159935 27.8251364 135.164565 28.4382955 134.588092 28.4382955 134.579989 28.9517727 134.162104 28.9459773 134.156316 29.4722045 133.788207 29.4594545 133.788207 30.1549091 133.512704 30.1502727 133.502286 31.5620455 134.615874 31.5956591 134.601983 32.385 133.837983 32.385 133.844928 33.6542045 135.644959 33.6194318 135.644959 34.5235227 134.845074 34.5409091 134.852019 37.4989091 136.044322 37.4792045 136.044322 33.4142727 137.358171 33.4490455 137.358171 37.4189318 139.358462 37.4189318 139.358462 40.7223409"></polygon>
                </g>
            </g>
        </g>
    </g>
</svg>